<?xml version="1.0" encoding="UTF-8" standalone="no"?>
<!-- Created with Inkscape (http://www.inkscape.org/) -->

<svg
   width="125mm"
   height="88mm"
   viewBox="0 0 125 88"
   version="1.1"
   id="svg596"
   inkscape:version="1.1 (c4e8f9e, 2021-05-24)"
   sodipodi:docname="locust.svg"
   inkscape:export-filename="/Users/carafagi/workdir/locustswarm/docs/locust_white.png"
   inkscape:export-xdpi="96"
   inkscape:export-ydpi="96"
   xmlns:inkscape="http://www.inkscape.org/namespaces/inkscape"
   xmlns:sodipodi="http://sodipodi.sourceforge.net/DTD/sodipodi-0.dtd"
   xmlns="http://www.w3.org/2000/svg"
   xmlns:svg="http://www.w3.org/2000/svg"
   xmlns:rdf="http://www.w3.org/1999/02/22-rdf-syntax-ns#"
   xmlns:cc="http://creativecommons.org/ns#">
  <sodipodi:namedview
     id="namedview598"
     pagecolor="#ffffff"
     bordercolor="#666666"
     borderopacity="1.0"
     inkscape:pageshadow="2"
     inkscape:pageopacity="0"
     inkscape:pagecheckerboard="true"
     inkscape:document-units="mm"
     showgrid="false"
     inkscape:lockguides="true"
     inkscape:snap-nodes="true"
     inkscape:snap-others="true"
     inkscape:snap-grids="true"
     inkscape:zoom="1.0998546"
     inkscape:cx="90.011898"
     inkscape:cy="273.21793"
     inkscape:window-width="2434"
     inkscape:window-height="1265"
     inkscape:window-x="235"
     inkscape:window-y="25"
     inkscape:window-maximized="0"
     inkscape:current-layer="layer1"
     showguides="true"
     inkscape:guide-bbox="true" />
  <defs
     id="defs593" />
  <g
     inkscape:label="Ebene 1"
     inkscape:groupmode="layer"
     id="layer1"
     sodipodi:insensitive="true"
     style="display:none">
    <path
       style="fill:#000000;stroke-width:0.264583"
       d="m 30.077764,104.39265 c -0.961662,-0.58633 -1.382468,-1.43307 -1.382468,-2.78179 0,-2.447919 1.385438,-3.302519 5.35393,-3.302519 h 2.729177 l 2.331673,-3.46045 c 1.28242,-1.90325 2.291456,-3.48699 2.242301,-3.51942 -0.04915,-0.0324 -0.749914,-0.25966 -1.557242,-0.50496 -3.689695,-1.12106 -7.527425,-4.44788 -9.373462,-8.12559 -1.663237,-3.31352 -1.726377,-3.93029 -1.726377,-16.86379 v -11.67061 l 0.656101,-0.77973 c 0.360856,-0.42885 0.985934,-0.91613 1.389063,-1.08284 0.543164,-0.22462 12.277359,-0.28489 45.315253,-0.23275 l 44.582287,0.0704 1.76986,0.83847 c 2.29332,1.08646 4.14465,3.00322 5.14256,5.3243 0.0183,0.0425 0.70132,-0.21809 1.51784,-0.5792 1.87274,-0.82821 3.96853,-2.90171 4.82599,-4.77464 0.3688,-0.80557 0.75323,-2.3011 0.87839,-3.41719 0.26928,-2.40114 0.91871,-3.46094 2.39113,-3.90209 1.34006,-0.40149 2.27884,-0.13796 3.36003,0.94324 0.82858,0.82857 0.88399,0.99653 0.88399,2.67948 0,6.65627 -4.85138,13.12059 -11.44323,15.24776 l -1.78594,0.57632 v 6.24233 c 0,7.01066 -0.16736,8.08969 -1.76515,11.38059 -1.3746,2.83121 -4.4655,5.89066 -7.36297,7.28807 -1.16417,0.56147 -2.15266,1.04272 -2.19665,1.06946 -0.044,0.0267 0.72787,1.66958 1.71525,3.65076 l 1.79523,3.60213 h 2.59737 c 2.83422,0 3.71697,0.28116 4.66439,1.48561 0.66179,0.841309 0.72951,2.431759 0.15118,3.550129 -0.74454,1.43979 -1.51778,1.6226 -6.47089,1.52987 -4.01121,-0.0751 -4.50879,-0.13558 -5.03748,-0.61248 -0.32266,-0.29104 -1.94265,-3.23784 -3.59998,-6.548439 l -3.01334,-6.01927 h -9.3916 c -6.014907,0 -9.391607,0.0941 -9.391607,0.26167 0,0.14391 0.68222,1.63219 1.51603,3.30729 l 1.51603,3.04562 h 2.46122 c 2.76344,0 3.908317,0.34934 4.781047,1.45883 1.11039,1.411629 0.55892,3.945539 -1.03846,4.771569 -0.665287,0.34404 -1.601517,0.4037 -5.260177,0.33521 -4.01122,-0.0751 -4.50879,-0.13558 -5.0375,-0.61248 -0.32264,-0.29104 -1.94264,-3.23784 -3.59997,-6.548439 l -3.01334,-6.01927 -16.998372,0.006 -16.998376,0.006 -4.101042,6.11517 c -2.533298,3.777469 -4.404476,6.303359 -4.894792,6.607439 -0.687511,0.42637 -1.360357,0.49226 -5.027083,0.49226 -3.765323,0 -4.329127,-0.0584 -5.099824,-0.5283 z M 47.850987,81.894561 c 1.149538,-1.74597 2.042506,-3.21248 1.984375,-3.25892 -0.05813,-0.0464 -1.131459,-0.28102 -2.385177,-0.52128 -3.868356,-0.74133 -7.298722,-2.37341 -10.600913,-5.04363 l -1.598792,-1.29281 0.106897,3.01261 c 0.119342,3.36333 0.566115,4.73832 2.179278,6.70698 1.719038,2.09786 4.602725,3.56067 7.033641,3.56796 l 1.190625,0.004 z m 29.477046,1.63097 c -0.62701,-0.85451 -1.73534,-2.34279 -2.46294,-3.30729 l -1.32292,-1.75364 -7.71545,-1e-5 h -7.715449 l -2.14028,3.18802 c -1.177155,1.75342 -2.140281,3.2417 -2.140281,3.3073 0,0.0656 5.543404,0.11926 12.318677,0.11926 h 12.318673 z m 17.77768,-1.75365 v -3.30729 h -6.48229 c -3.56526,0 -6.48229,0.0787 -6.48229,0.17489 0,0.18477 2.36829,3.41751 3.89392,5.31522 l 0.904,1.12447 h 4.08334 4.08332 z m 20.699877,2.46376 c 1.94384,-0.91101 4.01043,-2.98069 4.90757,-4.91491 0.59805,-1.28938 0.71912,-1.9611 0.80508,-4.4668 l 0.10117,-2.9492 -2.43082,-0.0935 c -2.35163,-0.0905 -2.45552,-0.12114 -3.18851,-0.9417 -1.03994,-1.16419 -1.24602,-2.44306 -0.59796,-3.7109 0.71509,-1.39899 1.87718,-1.92228 4.27002,-1.92279 l 1.94455,-4.1e-4 -0.0925,-2.35385 c -0.0744,-1.89416 -0.19582,-2.46968 -0.62164,-2.94693 -1.10947,-1.24347 -1.6826,-1.3138 -10.70713,-1.3138 h -8.47516 v 13.24648 13.24647 l 6.28385,-0.0834 c 6.18446,-0.0821 6.30786,-0.0947 7.80145,-0.7947 z M 58.713003,65.679961 c 2.28714,-3.39352 4.475758,-6.36692 4.863595,-6.60754 0.661278,-0.41027 -0.189804,-0.43794 -13.677173,-0.44454 l -14.382328,-0.007 0.16872,0.67224 c 1.458083,5.80946 6.409902,10.73036 12.209358,12.13312 0.863452,0.20884 2.715046,0.38964 4.114652,0.40177 l 2.544741,0.022 z m 9.508834,5.83932 c -0.304011,-0.52316 -2.783962,-3.63802 -2.896468,-3.63802 -0.0558,0 -0.704016,0.89297 -1.440489,1.98437 l -1.339043,1.98438 h 2.934094 c 2.27339,0 2.890816,-0.0745 2.741906,-0.33073 z m 26.883876,-6.28386 v -6.61458 l -14.61823,0.0168 c -8.27285,0.009 -14.377426,0.11413 -14.063476,0.24106 0.714491,0.28886 2.144384,1.99642 6.320126,7.54738 1.86096,2.47385 3.56442,4.70628 3.78546,4.96094 0.36817,0.42418 1.16409,0.46302 9.489,0.46302 h 9.08712 z"
       id="path924-3" />
  </g>
  <g
     inkscape:groupmode="layer"
     id="layer2"
     inkscape:label="Ebene 2"
     style="display:inline">
    <path
       style="fill:#000000;fill-opacity:0;stroke:#ffffff;stroke-width:6.465;stroke-linecap:round;stroke-linejoin:round;stroke-miterlimit:4;stroke-dasharray:none;stroke-opacity:1"
       d="m 9.4916953,27.327296 c 0,0 59.8478177,-0.397719 88.7540777,0 2.551917,0.03511 4.358167,3.157869 5.292347,5.53293 2.14283,5.447959 2.12728,12.207033 -0.24056,17.561033 -2.04225,4.617811 -6.016697,10.310543 -11.065837,10.344169 -21.311795,0.141931 -39.961187,0.106203 -69.281891,0 C 16.821963,60.743228 11.926,53.874056 9.4783553,48.2562 6.6918404,41.860566 9.4916953,27.327296 9.4916953,27.327296 Z"
       id="path1278"
       sodipodi:nodetypes="csaassac"
       inkscape:export-filename="/Users/carafagi/workdir/locustswarm/docs/locust_wihte.png"
       inkscape:export-xdpi="96"
       inkscape:export-ydpi="96" />
  </g>
  <g
     inkscape:groupmode="layer"
     id="layer3"
     inkscape:label="Ebene 3">
    <path
       style="fill:#000000;fill-opacity:0;stroke:#ffffff;stroke-width:6.465;stroke-linecap:round;stroke-linejoin:round;stroke-miterlimit:4;stroke-dasharray:none;stroke-opacity:1"
       d="M 76.524869,27.196467 V 60.782394"
       id="path1751"
       sodipodi:nodetypes="cc"
       inkscape:export-filename="/Users/carafagi/workdir/locustswarm/docs/locust_wihte.png"
       inkscape:export-xdpi="96"
       inkscape:export-ydpi="96" />
    <path
       style="fill:#000000;fill-opacity:0;stroke:#ffffff;stroke-width:6.465;stroke-linecap:round;stroke-linejoin:round;stroke-miterlimit:4;stroke-dasharray:none;stroke-opacity:1"
       d="m 8.3135304,74.078734 h 8.8453616 l 20.422384,-60.511331 32.989984,60.662571 7.655523,-0.009"
       id="path1753"
       sodipodi:nodetypes="ccccc"
       inkscape:export-filename="/Users/carafagi/workdir/locustswarm/docs/locust_wihte.png"
       inkscape:export-xdpi="96"
       inkscape:export-ydpi="96" />
    <path
       style="fill:#000000;fill-opacity:0;stroke:#ffffff;stroke-width:6.465;stroke-linecap:round;stroke-linejoin:round;stroke-miterlimit:4;stroke-dasharray:none;stroke-opacity:1"
       d="m 90.713883,60.772961 6.05325,12.606493 8.845357,0.0198"
       id="path1755"
       sodipodi:nodetypes="ccc"
       inkscape:export-filename="/Users/carafagi/workdir/locustswarm/docs/locust_wihte.png"
       inkscape:export-xdpi="96"
       inkscape:export-ydpi="96" />
    <path
       style="fill:#000000;fill-opacity:0;stroke:#ffffff;stroke-width:6.465;stroke-linecap:round;stroke-linejoin:round;stroke-miterlimit:4;stroke-dasharray:none;stroke-opacity:1"
       d="m 9.4916953,27.327296 c 0,0 13.5423067,20.13328 23.9970917,20.19649 14.12074,0.08537 42.951031,0.170103 42.951031,0.170103"
       id="path1757"
       sodipodi:nodetypes="csc"
       inkscape:export-filename="/Users/carafagi/workdir/locustswarm/docs/locust_wihte.png"
       inkscape:export-xdpi="96"
       inkscape:export-ydpi="96" />
    <path
       style="fill:#000000;fill-opacity:0;stroke:#ffffff;stroke-width:6.465;stroke-linecap:round;stroke-linejoin:round;stroke-miterlimit:4;stroke-dasharray:none;stroke-opacity:1"
       d="m 97.760033,37.482696 c 9.511587,-0.0071 16.265467,-11.214709 19.079257,-18.02592"
       id="path1759"
       sodipodi:nodetypes="cc"
       inkscape:export-filename="/Users/carafagi/workdir/locustswarm/docs/locust_wihte.png"
       inkscape:export-xdpi="96"
       inkscape:export-ydpi="96" />
  </g>
  <metadata
     id="metadata3593">
    <rdf:RDF>
      <cc:Work
         rdf:about="">
        <cc:license
           rdf:resource="MIT" />
      </cc:Work>
    </rdf:RDF>
  </metadata>
</svg>
